:FULLY-SPECIFIED
:FORCE-ALL-JOINTS-BE-3DOF
:DEGREES
1121
root 0.861384 14.4999 -28.2092 366.281 -9.78636 361.829
lfemur -45.559 13.1265 -27.249
ltibia 75.0092 0 0
lfoot -21.3755 27.9456 0
ltoes -13.4082 0 0
rfemur -37.1372 -10.8718 11.3192
rtibia 100.82 0 0
rfoot -5.63859 -2.17118 0
rtoes -17.1332 0 0
lowerback 14.6303 0.468794 -9.10028
upperback -1.25554 -0.761496 2.10445
thorax -9.48892 0.171591 7.67092
lowerneck -6.27063 2.31389 -0.958983
upperneck 2.45183 3.01133 1.29067
head 1.96437 1.5157 0.626659
lclavicle -4.44873e-15 3.46779e-14 0
lhumerus 68.0619 -7.30685 47.6104
lradius 83.3441 0 0
lwrist 33.2733 0 0
lhand -34.3338 37.5592 0
lfingers 7.12502 0 0
lthumb -7.50119 67.3663 0
rclavicle -4.44873e-15 3.46779e-14 0
rhumerus -44.523 18.6346 -91.3227
rradius 90.3498 0 0
rwrist -48.8136 0 0
rhand -19.1954 -47.4021 0
rfingers 7.12502 0 0
rthumb 7.11662 -77.1863 0
1122
root 0.831483 14.4978 -28.0296 366.261 -9.69465 361.777
lfemur -45.4471 13.1526 -27.1188
ltibia 74.9551 0 0
lfoot -21.3734 27.8656 0
ltoes -13.4068 0 0
rfemur -37.0462 -10.8997 11.2997
rtibia 100.499 0 0
rfoot -5.67204 -2.19943 0
rtoes -17.1188 0 0
lowerback 14.6145 0.47546 -9.06069
upperback -1.25603 -0.746533 2.10906
thorax -9.48273 0.176731 7.64942
lowerneck -6.24433 2.27861 -0.990673
upperneck 2.47831 2.96212 1.32156
head 1.97636 1.49134 0.638095
lclavicle -4.69077e-15 3.47211e-14 0
lhumerus 67.6173 -7.3179 47.7752
lradius 83.4418 0 0
lwrist 33.2998 0 0
lhand -34.2826 37.5496 0
lfingers 7.12502 0 0
lthumb -7.45177 67.3568 0
rclavicle -4.69077e-15 3.47211e-14 0
rhumerus -44.2347 18.5507 -91.1153
rradius 90.4077 0 0
rwrist -48.6253 0 0
rhand -19.2471 -47.3098 0
rfingers 7.12502 0 0
rthumb 7.06662 -77.0919 0
1123
root 0.801582 14.4957 -27.85 366.239 -9.59157 361.718
lfemur -45.3213 13.182 -26.9724
ltibia 74.8943 0 0
lfoot -21.3709 27.7755 0
ltoes -13.4053 0 0
rfemur -36.9438 -10.9311 11.2777
rtibia 100.137 0 0
rfoot -5.70971 -2.23125 0
rtoes -17.1027 0 0
lowerback 14.5966 0.482951 -9.01614
upperback -1.25658 -0.729706 2.11427
thorax -9.47576 0.18251 7.62524
lowerneck -6.21475 2.23896 -1.02629
upperneck 2.50809 2.9068 1.35629
head 1.98986 1.46396 0.65095
lclavicle -4.96282e-15 3.47697e-14 0
lhumerus 67.1174 -7.3303 47.9606
lradius 83.5516 0 0
lwrist 33.3295 0 0
lhand -34.2251 37.5387 0
lfingers 7.12502 0 0
lthumb -7.39619 67.3462 0
rclavicle -4.96282e-15 3.47697e-14 0
rhumerus -43.9107 18.4565 -90.882
rradius 90.4729 0 0
rwrist -48.4136 0 0
rhand -19.3053 -47.206 0
rfingers 7.12502 0 0
rthumb 7.01042 -76.9856 0
1124
root 0.771681 14.4936 -27.6704 366.212 -9.47242 361.653
lfemur -45.1757 13.2125 -26.8091
ltibia 74.8242 0 0
lfoot -21.369 27.6777 0
ltoes -13.4045 0 0
rfemur -36.8332 -10.9669 11.2533
rtibia 99.7348 0 0
rfoot -5.7503 -2.2645 0
rtoes -17.0827 0 0
lowerback 14.5769 0.491587 -8.96734
upperback -1.25716 -0.71074 2.1195
thorax -9.46811 0.189081 7.59811
lowerneck -6.18149 2.1933 -1.06732
upperneck 2.54138 2.84315 1.39609
head 2.00501 1.43244 0.66572
lclavicle -5.27679e-15 3.48187e-14 0
lhumerus 66.5485 -7.34535 48.1724
lradius 83.6756 0 0
lwrist 33.366 0 0
lhand -34.1597 37.5271 0
lfingers 7.12502 0 0
lthumb -7.33303 67.3347 0
rclavicle -5.27679e-15 3.48187e-14 0
rhumerus -43.5393 18.3491 -90.6171
rradius 90.5442 0 0
rwrist -48.1717 0 0
rhand -19.3724 -47.0907 0
rfingers 7.12502 0 0
rthumb 6.94562 -76.8677 0
1125
root 0.74178 14.4915 -27.4909 366.181 -9.33249 361.584
lfemur -45.0044 13.2422 -26.6284
ltibia 74.7424 0 0
lfoot -21.3684 27.5743 0
ltoes -13.4052 0 0
rfemur -36.718 -11.008 11.2262
rtibia 99.2906 0 0
rfoot -5.79253 -2.29704 0
rtoes -17.057 0 0
lowerback 14.5556 0.501682 -8.915
upperback -1.25776 -0.689359 2.12418
thorax -9.45988 0.196597 7.56775
lowerneck -6.14416 2.14001 -1.11522
upperneck 2.57837 2.76892 1.44219
head 2.02201 1.39569 0.682903
lclavicle -5.64461e-15 3.48628e-14 0
lhumerus 65.8971 -7.36435 48.4167
lradius 83.8157 0 0
lwrist 33.413 0 0
lhand -34.0849 37.5151 0
lfingers 7.12502 0 0
lthumb -7.26084 67.3229 0
rclavicle -5.64461e-15 3.48628e-14 0
rhumerus -43.1089 18.2259 -90.3145
rradius 90.6207 0 0
rwrist -47.8928 0 0
rhand -19.4509 -46.9643 0
rfingers 7.12502 0 0
rthumb 6.86985 -76.7383 0
1126
root 0.711879 14.4894 -27.3113 366.143 -9.16707 361.511
lfemur -44.8014 13.2687 -26.4298
ltibia 74.6462 0 0
lfoot -21.3699 27.4677 0
ltoes -13.4083 0 0
rfemur -36.6014 -11.0554 11.1964
rtibia 98.8039 0 0
rfoot -5.83512 -2.32672 0
rtoes -17.0236 0 0
lowerback 14.5326 0.513553 -8.85985
upperback -1.25835 -0.665288 2.12775
thorax -9.45116 0.205211 7.5339
lowerneck -6.10236 2.07744 -1.17148
upperneck 2.61925 2.6819 1.49581
head 2.04102 1.35259 0.702995
lclavicle -6.0782e-15 3.48969e-14 0
lhumerus 65.1493 -7.38857 48.6996
lradius 83.9737 0 0
lwrist 33.4739 0 0
lhand -33.9993 37.5031 0
lfingers 7.12502 0 0
lthumb -7.17818 67.3112 0
rclavicle -6.0782e-15 3.48969e-14 0
rhumerus -42.6079 18.0843 -89.9682
rradius 90.7012 0 0
rwrist -47.5699 0 0
rhand -19.5432 -46.8269 0
rfingers 7.12502 0 0
rthumb 6.78071 -76.5976 0
1127
root 0.681978 14.4873 -27.1317 366.097 -8.97145 361.436
lfemur -44.5607 13.2901 -26.2126
ltibia 74.5331 0 0
lfoot -21.3743 27.3602 0
ltoes -13.4147 0 0
rfemur -36.4869 -11.11 11.1638
rtibia 98.2739 0 0
rfoot -5.87679 -2.35139 0
rtoes -16.9803 0 0
lowerback 14.5082 0.527518 -8.8026
upperback -1.25892 -0.638252 2.12964
thorax -9.44206 0.215077 7.49628
lowerneck -6.0557 2.00398 -1.23757
upperneck 2.66423 2.57985 1.55819
head 2.06222 1.30204 0.726493
lclavicle -6.58947e-15 3.49158e-14 0
lhumerus 64.2916 -7.41933 49.0269
lradius 84.1518 0 0
lwrist 33.5523 0 0
lhand -33.9014 37.4916 0
lfingers 7.12502 0 0
lthumb -7.08361 67.3001 0
rclavicle -6.58947e-15 3.49158e-14 0
rhumerus -42.0247 17.9216 -89.5724
rradius 90.7846 0 0
rwrist -47.1964 0 0
rhand -19.6518 -46.6786 0
rfingers 7.12502 0 0
rthumb 6.6758 -76.4458 0
1128
root 0.652077 14.4851 -26.9521 366.043 -8.74093 361.359
lfemur -44.2765 13.3041 -25.9764
ltibia 74.4006 0 0
lfoot -21.3823 27.2539 0
ltoes -13.4253 0 0
rfemur -36.3777 -11.1727 11.1283
rtibia 97.6999 0 0
rfoot -5.91625 -2.3689 0
rtoes -16.9252 0 0
lowerback 14.4825 0.543893 -8.74396
upperback -1.25942 -0.607976 2.12928
thorax -9.43265 0.226346 7.45462
lowerneck -6.00377 1.91797 -1.31496
upperneck 2.71349 2.46054 1.63056
head 2.08577 1.24293 0.753892
lclavicle -7.19034e-15 3.49143e-14 0
lhumerus 63.3104 -7.45791 49.4048
lradius 84.3518 0 0
lwrist 33.6519 0 0
lhand -33.7896 37.481 0
lfingers 7.12502 0 0
lthumb -6.97569 67.2898 0
rclavicle -7.19034e-15 3.49143e-14 0
rhumerus -41.3477 17.735 -89.1211
rradius 90.87 0 0
rwrist -46.7654 0 0
rhand -19.7793 -46.5196 0
rfingers 7.12502 0 0
rthumb 6.55275 -76.283 0
1129
root 0.622176 14.483 -26.7725 365.979 -8.47079 361.281
lfemur -43.9428 13.3088 -25.7206
ltibia 74.2461 0 0
lfoot -21.3947 27.1513 0
ltoes -13.4408 0 0
rfemur -36.2774 -11.2445 11.0899
rtibia 97.081 0 0
rfoot -5.95223 -2.37711 0
rtoes -16.8563 0 0
lowerback 14.4557 0.562995 -8.68466
upperback -1.25985 -0.574186 2.1261
thorax -9.42305 0.239173 7.40866
lowerneck -5.94619 1.81781 -1.40512
upperneck 2.76724 2.32173 1.71416
head 2.11185 1.17415 0.785691
lclavicle -7.89273e-15 3.48872e-14 0
lhumerus 62.1918 -7.5056 49.8392
lradius 84.5756 0 0
lwrist 33.7762 0 0
lhand -33.6625 37.4717 0
lfingers 7.12502 0 0
lthumb -6.85298 67.2809 0
rclavicle -7.89273e-15 3.48872e-14 0
rhumerus -40.5654 17.5221 -88.6083
rradius 90.9562 0 0
rwrist -46.27 0 0
rhand -19.928 -46.35 0
rfingers 7.12502 0 0
rthumb 6.40915 -76.1093 0
1130
root 0.592275 14.4809 -26.5929 365.903 -8.15633 361.203
lfemur -43.5536 13.3018 -25.4445
ltibia 74.067 0 0
lfoot -21.4125 27.0544 0
ltoes -13.4623 0 0
rfemur -36.1891 -11.3262 11.0483
rtibia 96.4164 0 0
rfoot -5.98343 -2.37388 0
rtoes -16.7716 0 0
lowerback 14.4278 0.58514 -8.6254
upperback -1.26018 -0.536605 2.11953
thorax -9.41335 0.25371 7.35812
lowerneck -5.88255 1.70184 -1.50954
upperneck 2.82568 2.1612 1.81021
head 2.14062 1.09459 0.822385
lclavicle -8.70856e-15 3.48294e-14 0
lhumerus 60.9224 -7.56371 50.3361
lradius 84.8253 0 0
lwrist 33.9288 0 0
lhand -33.5186 37.4641 0
lfingers 7.12502 0 0
lthumb -6.71404 67.2737 0
rclavicle -8.70856e-15 3.48294e-14 0
rhumerus -39.6661 17.2799 -88.0281
rradius 91.0421 0 0
rwrist -45.7034 0 0
rhand -20.1005 -46.1701 0
rfingers 7.12502 0 0
rthumb 6.24261 -75.925 0
1131
root 0.562373 14.4788 -26.4133 365.815 -7.79285 361.127
lfemur -43.103 13.2812 -25.1477
ltibia 73.861 0 0
lfoot -21.4362 26.9657 0
ltoes -13.4904 0 0
rfemur -36.1165 -11.4189 11.0037
rtibia 95.7054 0 0
rfoot -6.00859 -2.35705 0
rtoes -16.669 0 0
lowerback 14.399 0.610645 -8.56691
upperback -1.26038 -0.49496 2.10902
thorax -9.40364 0.27011 7.30272
lowerneck -5.81245 1.56845 -1.62968
upperneck 2.88899 1.97672 1.91994
head 2.17227 1.00315 0.86447
lclavicle -9.64975e-15 3.47356e-14 0
lhumerus 59.4883 -7.63351 50.9015
lradius 85.1028 0 0
lwrist 34.1132 0 0
lhand -33.3564 37.4587 0
lfingers 7.12502 0 0
lthumb -6.55742 67.2688 0
rclavicle -9.64975e-15 3.47356e-14 0
rhumerus -38.6382 17.006 -87.3746
rradius 91.1267 0 0
rwrist -45.0589 0 0
rhand -20.2992 -45.9801 0
rfingers 7.12502 0 0
rthumb 6.05076 -75.7301 0
1132
root 0.532472 14.4767 -26.2337 365.713 -7.37562 361.053
lfemur -42.5852 13.2447 -24.8296
ltibia 73.6253 0 0
lfoot -21.4668 26.8875 0
ltoes -13.5262 0 0
rfemur -36.0627 -11.5234 10.9558
rtibia 94.9472 0 0
rfoot -6.0264 -2.32449 0
rtoes -16.5466 0 0
lowerback 14.3695 0.639826 -8.50989
upperback -1.26044 -0.448975 2.09399
thorax -9.39402 0.288526 7.2422
lowerneck -5.73551 1.416 -1.76702
upperneck 2.95738 1.76605 2.04458
head 2.20696 0.898715 0.912445
lclavicle -1.07282e-14 3.46008e-14 0
lhumerus 57.876 -7.71631 51.5415
lradius 85.41 0 0
lwrist 34.3331 0 0
lhand -33.1744 37.4558 0
lfingers 7.12502 0 0
lthumb -6.38169 67.2665 0
rclavicle -1.07282e-14 3.46008e-14 0
rhumerus -37.4702 16.6976 -86.6418
rradius 91.2089 0 0
rwrist -44.3295 0 0
rhand -20.5266 -45.78 0
rfingers 7.12502 0 0
rthumb 5.83119 -75.525 0
1133
root 0.502571 14.4746 -26.0541 365.596 -6.89996 360.982
lfemur -41.994 13.1903 -24.4896
ltibia 73.3574 0 0
lfoot -21.505 26.8218 0
ltoes -13.5704 0 0
rfemur -36.0311 -11.6407 10.9045
rtibia 94.1411 0 0
rfoot -6.0356 -2.27404 0
rtoes -16.4024 0 0
lowerback 14.3394 0.673001 -8.45507
upperback -1.26033 -0.398374 2.07386
thorax -9.38459 0.309112 7.17629
lowerneck -5.65133 1.24285 -1.92304
upperneck 3.03104 1.52696 2.18537
head 2.24487 0.78018 0.966804
lclavicle -1.19559e-14 3.44196e-14 0
lhumerus 56.0718 -7.81341 52.2621
lradius 85.749 0 0
lwrist 34.592 0 0
lhand -32.9712 37.4559 0
lfingers 7.12502 0 0
lthumb -6.18541 67.2672 0
rclavicle -1.19559e-14 3.44196e-14 0
rhumerus -36.1504 16.352 -85.8239
rradius 91.2876 0 0
rwrist -43.5084 0 0
rhand -20.7852 -45.5701 0
rfingers 7.12502 0 0
rthumb 5.58152 -75.3097 0
1134
root 0.47267 14.4724 -25.8745 365.463 -6.36114 360.915
lfemur -41.3237 13.1159 -24.1271
ltibia 73.0549 0 0
lfoot -21.5515 26.7711 0
ltoes -13.624 0 0
rfemur -36.0252 -11.7717 10.8499
rtibia 93.2861 0 0
rfoot -6.0349 -2.20355 0
rtoes -16.2343 0 0
lowerback 14.3088 0.710486 -8.40316
upperback -1.26002 -0.342884 2.04809
thorax -9.37545 0.332019 7.10472
lowerneck -5.55951 1.04739 -2.0992
upperneck 3.11017 1.25722 2.34353
head 2.28617 0.646437 1.02805
lclavicle -1.33447e-14 3.4187e-14 0
lhumerus 54.062 -7.92608 53.0692
lradius 86.1215 0 0
lwrist 34.8935 0 0
lhand -32.7451 37.4595 0
lfingers 7.12502 0 0
lthumb -5.96713 67.2715 0
rclavicle -1.33447e-14 3.4187e-14 0
rhumerus -34.6672 15.9666 -84.9147
rradius 91.3618 0 0
rwrist -42.5889 0 0
rhand -21.0775 -45.3505 0
rfingers 7.12502 0 0
rthumb 5.29936 -75.0843 0
